<?xml version="1.0" encoding="UTF-8"?><svg id="Capa_1" xmlns="http://www.w3.org/2000/svg" viewBox="0 0 195.06 94.64"><defs><style>.cls-1{fill:#2196f3;}</style></defs><path class="cls-1" d="M84.99,18.41h9.49v48.14h-9.49V18.41Zm43.4,0c5.46,0,9.81,1.54,13.07,4.61,3.26,3.07,4.88,7.2,4.88,12.38s-1.63,9.32-4.88,12.42c-3.25,3.1-7.61,4.64-13.07,4.64h-13.14v14.1h-9.49V18.41h22.63Zm-.41,25.52c2.7,0,4.85-.77,6.43-2.3,1.58-1.54,2.37-3.59,2.37-6.16s-.79-4.62-2.37-6.16c-1.58-1.54-3.73-2.31-6.43-2.31h-12.79v16.92h12.79Zm48.21-25.52c5.46,0,9.81,1.54,13.07,4.61,3.25,3.07,4.88,7.2,4.88,12.38s-1.63,9.32-4.88,12.42c-3.26,3.1-7.61,4.64-13.07,4.64h-13.14v14.1h-9.49V18.41h22.63Zm-.41,25.52c2.7,0,4.85-.77,6.43-2.3,1.58-1.54,2.37-3.59,2.37-6.16s-.79-4.62-2.37-6.16c-1.58-1.54-3.73-2.31-6.43-2.31h-12.79v16.92h12.79ZM52.55,11.43v-1.38c0-5.23-3.37-8.89-7.73-8.89-.64,0-1.28,.06-1.92,.22L11.19,8.76C5.85,10,1.49,15.91,1.49,21.93V57.79c0,.53,.05,1.05,.13,1.56,.02,.18,.05,.35,.08,.52,.07,.33,.15,.66,.25,.99,.11,.36,.23,.7,.37,1.04,.06,.14,.13,.28,.19,.43,.11,.22,.2,.45,.33,.66,1.91,3.41,5.64,5.73,9.92,5.73H49.71c6.22,0,11.27-4.9,11.27-10.92V21.99c0-5.07-3.58-9.33-8.42-10.55m-40.9-.82L43.32,3.24c.52-.11,.99-.17,1.51-.17,3.37,0,5.75,2.87,5.75,6.98v1.06c-.29-.02-.58-.04-.87-.04H12.76c-1.23,0-2.42,.2-3.53,.56,.77-.47,1.59-.81,2.43-1.01m9.01,40.47V28.46c0-3.32,2.38-4.56,5.23-2.76l17.08,10.75c2.85,1.86,2.85,4.84,0,6.64l-17.08,10.75c-2.91,1.8-5.23,.56-5.23-2.76M4.38,84.23h1.09v9.19h-1.09v-9.19Zm5.24,9.19v-9.55l6.72,7.34v-6.98h1.04v9.55l-6.72-7.26v6.9h-1.04Zm15.23-5.1c.6,.26,1.05,.59,1.35,1.02,.3,.42,.46,.92,.46,1.5,0,.85-.27,1.53-.81,2.04-.54,.52-1.25,.77-2.14,.77-.73,0-1.33-.18-1.82-.55-.49-.37-.82-.9-.99-1.58l.99-.49c.13,.56,.35,.98,.66,1.27,.31,.29,.69,.43,1.16,.43,.55,0,.99-.16,1.33-.47,.34-.32,.51-.73,.51-1.23,0-.41-.12-.77-.35-1.07-.24-.3-.59-.56-1.07-.77l-1.12-.48c-.61-.25-1.06-.58-1.37-.99-.3-.4-.45-.88-.45-1.44,0-.65,.24-1.19,.73-1.62,.49-.43,1.11-.64,1.86-.64,.55,0,1.03,.12,1.43,.35,.4,.23,.72,.58,.94,1.04l-.9,.58c-.21-.36-.44-.62-.69-.79-.25-.17-.54-.26-.87-.26-.41,0-.75,.13-1.01,.38-.26,.25-.39,.57-.39,.96,0,.33,.1,.61,.3,.85,.2,.24,.51,.45,.93,.63l1.31,.58Zm6.8,5.1v-8.15h-2.6v-1.04h6.29v1.04h-2.59v8.15h-1.1Zm6.85-9.19h1.09v9.19h-1.09v-9.19Zm6.85,9.19v-8.15h-2.6v-1.04h6.29v1.04h-2.59v8.15h-1.1Zm6.8-9.19h1.1v5.72c0,.93,.2,1.61,.59,2.05,.4,.44,1.02,.65,1.86,.65s1.46-.22,1.86-.65c.4-.44,.59-1.12,.59-2.05v-5.72h1.11v5.72c0,1.24-.3,2.17-.89,2.79-.59,.62-1.48,.93-2.68,.93s-2.08-.31-2.67-.93c-.59-.62-.89-1.55-.89-2.79v-5.72Zm12.83,9.19v-8.15h-2.6v-1.04h6.29v1.04h-2.59v8.15h-1.1Zm15.54-4.58c0,.66-.12,1.28-.36,1.86-.24,.58-.6,1.1-1.06,1.55-.46,.45-1,.8-1.61,1.05-.6,.24-1.23,.37-1.88,.37s-1.27-.12-1.87-.37c-.6-.24-1.13-.59-1.6-1.05-.47-.46-.83-.98-1.07-1.56-.25-.58-.37-1.2-.37-1.85s.12-1.28,.37-1.86c.24-.58,.6-1.1,1.07-1.56,.46-.45,.99-.79,1.59-1.04,.6-.24,1.23-.36,1.88-.36s1.28,.12,1.89,.36c.6,.24,1.14,.59,1.6,1.04,.47,.45,.82,.97,1.06,1.55,.24,.58,.36,1.21,.36,1.87m-4.91,3.79c.5,0,.98-.1,1.43-.29,.46-.19,.86-.47,1.23-.83,.36-.36,.63-.77,.82-1.22,.19-.46,.28-.94,.28-1.45s-.1-1-.29-1.47c-.19-.46-.46-.87-.82-1.23-.36-.36-.77-.63-1.22-.82-.45-.19-.94-.28-1.44-.28s-1,.09-1.45,.28c-.46,.19-.86,.46-1.21,.82-.36,.36-.63,.78-.82,1.24-.19,.46-.28,.95-.28,1.46s.09,.99,.28,1.44c.19,.45,.46,.86,.83,1.23,.37,.37,.78,.65,1.23,.84,.45,.19,.93,.28,1.43,.28m15.41-3.34v4.12h-1.07v-9.19h1.93c.67,0,1.17,.04,1.49,.11,.32,.07,.59,.19,.83,.35,.29,.21,.52,.49,.69,.86,.16,.36,.25,.77,.25,1.21s-.08,.85-.25,1.21c-.17,.36-.4,.65-.69,.86-.23,.17-.51,.29-.82,.36-.32,.07-.81,.11-1.49,.11h-.86Zm0-.99h.55c.94,0,1.57-.11,1.89-.33,.32-.22,.49-.6,.49-1.15,0-.58-.17-1-.5-1.24-.33-.24-.96-.36-1.88-.36h-.55v3.08Zm7.39,5.12v-9.19h2.16c.62,0,1.07,.04,1.35,.1,.29,.07,.54,.19,.76,.36,.27,.21,.48,.5,.63,.86,.15,.36,.23,.76,.23,1.19,0,.75-.21,1.33-.63,1.72-.42,.39-1.04,.59-1.85,.59h-.19l3.51,4.38h-1.39l-3.35-4.38h-.16v4.38h-1.07Zm1.07-8.27v3.08h.83c.85,0,1.42-.11,1.71-.33,.29-.22,.43-.6,.43-1.15,0-.59-.15-1-.45-1.24-.3-.24-.86-.36-1.7-.36h-.83Zm17.14,3.69c0,.66-.12,1.28-.36,1.86s-.6,1.1-1.06,1.55c-.47,.45-1,.8-1.61,1.05-.61,.24-1.23,.37-1.88,.37s-1.27-.12-1.87-.37c-.6-.24-1.13-.59-1.6-1.05-.47-.46-.83-.98-1.07-1.56-.25-.58-.37-1.2-.37-1.85s.12-1.28,.37-1.86c.24-.58,.6-1.1,1.07-1.56,.46-.45,.99-.79,1.59-1.04,.6-.24,1.23-.36,1.88-.36s1.28,.12,1.89,.36c.6,.24,1.14,.59,1.6,1.04,.46,.45,.82,.97,1.06,1.55,.24,.58,.36,1.21,.36,1.87m-4.91,3.79c.5,0,.98-.1,1.43-.29,.45-.19,.86-.47,1.23-.83,.36-.36,.63-.77,.82-1.22,.19-.46,.28-.94,.28-1.45s-.1-1-.29-1.47c-.19-.46-.46-.87-.82-1.23-.36-.36-.77-.63-1.22-.82-.45-.19-.94-.28-1.44-.28s-1,.09-1.45,.28c-.46,.19-.86,.46-1.21,.82-.36,.36-.63,.78-.82,1.24-.19,.46-.28,.95-.28,1.46s.09,.99,.28,1.44c.19,.45,.46,.86,.83,1.23,.37,.37,.78,.65,1.23,.84,.45,.19,.93,.28,1.43,.28m8.62,.78v-9.19h4.85v1h-3.75v2.64h3.75v1.02h-3.75v4.54h-1.09Zm8.44,0v-9.19h4.85v1h-3.75v2.64h3.75v1.02h-3.75v3.52h3.75v1.02h-4.85Zm11.97-5.1c.6,.26,1.05,.59,1.35,1.02,.3,.42,.46,.92,.46,1.5,0,.85-.27,1.53-.81,2.04-.54,.52-1.25,.77-2.14,.77-.72,0-1.33-.18-1.82-.55-.49-.37-.82-.9-.99-1.58l.99-.49c.13,.56,.35,.98,.66,1.27,.31,.29,.69,.43,1.16,.43,.55,0,.99-.16,1.33-.47,.34-.32,.51-.73,.51-1.23,0-.41-.12-.77-.35-1.07-.24-.3-.59-.56-1.07-.77l-1.12-.48c-.61-.25-1.07-.58-1.37-.99-.3-.4-.45-.88-.45-1.44,0-.65,.24-1.19,.73-1.62,.48-.43,1.1-.64,1.86-.64,.55,0,1.03,.12,1.43,.35,.4,.23,.72,.58,.94,1.04l-.9,.58c-.21-.36-.44-.62-.69-.79-.25-.17-.54-.26-.87-.26-.41,0-.75,.13-1.01,.38-.26,.25-.39,.57-.39,.96,0,.33,.1,.61,.3,.85,.2,.24,.51,.45,.93,.63l1.31,.58Zm5.2-4.09h1.09v9.19h-1.09v-9.19Zm14.64,4.61c0,.66-.12,1.28-.36,1.86-.24,.58-.6,1.1-1.06,1.55-.46,.45-1,.8-1.61,1.05-.6,.24-1.23,.37-1.88,.37s-1.27-.12-1.87-.37c-.6-.24-1.13-.59-1.6-1.05-.47-.46-.83-.98-1.07-1.56-.25-.58-.37-1.2-.37-1.85s.12-1.28,.37-1.86c.24-.58,.6-1.1,1.07-1.56,.46-.45,.99-.79,1.6-1.04,.6-.24,1.23-.36,1.88-.36s1.28,.12,1.89,.36c.6,.24,1.14,.59,1.6,1.04,.47,.45,.82,.97,1.06,1.55,.24,.58,.36,1.21,.36,1.87m-4.91,3.79c.5,0,.98-.1,1.44-.29,.46-.19,.86-.47,1.23-.83,.36-.36,.63-.77,.82-1.22,.19-.46,.28-.94,.28-1.45s-.1-1-.29-1.47c-.19-.46-.46-.87-.82-1.23-.36-.36-.77-.63-1.22-.82-.45-.19-.94-.28-1.44-.28s-.99,.09-1.45,.28c-.46,.19-.86,.46-1.21,.82-.36,.36-.63,.78-.82,1.24-.19,.46-.28,.95-.28,1.46s.09,.99,.28,1.44c.19,.45,.46,.86,.83,1.23,.37,.37,.78,.65,1.23,.84,.45,.19,.93,.28,1.43,.28m8.62,.78v-9.55l6.72,7.34v-6.98h1.04v9.55l-6.72-7.26v6.9h-1.04Zm14.8-9.55l4.18,9.55h-1.19l-1.19-2.82h-3.59l-1.19,2.82h-1.18l4.17-9.55Zm0,2.42l-1.46,3.38h2.92l-1.46-3.38Zm7.06,7.14v-9.19h1.09v8.15h3.47v1.04h-4.56Z"/></svg>